<?xml version="1.0" standalone="no"?>
<!DOCTYPE svg PUBLIC "-//W3C//DTD SVG 20010904//EN"
 "http://www.w3.org/TR/2001/REC-SVG-20010904/DTD/svg10.dtd">
<svg version="1.0" xmlns="http://www.w3.org/2000/svg"
 width="16.000000pt" height="16.000000pt" viewBox="0 0 16.000000 16.000000"
 preserveAspectRatio="xMidYMid meet">
<metadata>
Created by potrace 1.11, written by Peter Selinger 2001-2013
</metadata>
<g transform="translate(0.000000,16.000000) scale(0.003125,-0.003125)"
fill="#000000" stroke="none">
<path d="M2530 4951 c-19 -3 -61 -6 -92 -6 -33 0 -58 -4 -58 -10 0 -5 -4 -4
-9 4 -8 12 -12 12 -25 2 -13 -11 -16 -11 -16 0 0 9 -3 10 -8 3 -4 -5 -22 -10
-39 -9 -18 0 -33 -2 -33 -6 0 -3 -16 -5 -35 -4 -19 1 -35 -1 -35 -5 0 -5 -33
-11 -70 -12 -8 -1 -21 -5 -27 -11 -9 -6 -13 -5 -13 4 0 11 -2 12 -9 1 -4 -7
-26 -14 -48 -15 -23 -1 -39 -5 -36 -9 4 -8 -4 -10 -49 -10 -15 -1 -25 -4 -23
-8 4 -7 -15 -13 -70 -22 -11 -2 -22 -6 -25 -10 -3 -4 -18 -9 -34 -12 -15 -3
-33 -9 -39 -14 -12 -9 -61 -23 -73 -21 -4 0 -10 -3 -13 -8 -3 -4 -22 -16 -42
-25 -28 -13 -39 -14 -48 -5 -9 9 -10 8 -5 -7 5 -13 4 -17 -4 -12 -7 4 -12 2
-12 -4 0 -6 -4 -8 -10 -5 -5 3 -10 1 -10 -5 0 -6 -5 -8 -10 -5 -6 3 -13 -1
-16 -9 -3 -9 -10 -16 -16 -16 -5 0 -6 5 -3 11 4 6 -2 5 -13 -2 -12 -7 -18 -17
-15 -23 3 -5 1 -6 -5 -2 -6 3 -18 -1 -26 -10 -9 -8 -16 -13 -16 -9 0 3 -11 -2
-25 -11 -13 -8 -29 -13 -34 -9 -7 4 -8 -1 -4 -11 4 -11 2 -15 -4 -11 -6 4 -19
-3 -29 -14 -10 -11 -24 -17 -31 -15 -7 3 -12 0 -10 -7 1 -7 -4 -11 -11 -9 -7
1 -15 -5 -19 -14 -5 -13 -7 -13 -14 -2 -7 10 -9 9 -9 -4 0 -10 -6 -18 -14 -18
-8 0 -16 -7 -20 -15 -3 -8 -12 -15 -21 -15 -8 0 -15 -5 -15 -11 0 -5 -4 -7
-10 -4 -5 3 -10 -1 -10 -10 0 -9 -5 -13 -10 -10 -6 3 -13 -1 -16 -10 -4 -9
-13 -14 -21 -11 -8 3 -12 2 -9 -3 8 -12 -31 -44 -43 -36 -6 3 -8 0 -5 -8 3 -8
0 -18 -7 -23 -8 -5 -10 -3 -4 6 5 9 4 11 -3 6 -7 -4 -12 -14 -12 -22 0 -8 -4
-13 -8 -11 -4 1 -29 -19 -56 -45 -26 -27 -53 -45 -59 -41 -6 3 -7 1 -3 -5 4
-7 2 -12 -3 -12 -6 0 -10 -3 -9 -7 2 -5 -1 -10 -7 -12 -15 -6 -34 -35 -29 -43
3 -4 -5 -5 -16 -3 -12 2 -18 0 -14 -6 3 -6 -5 -21 -18 -34 -23 -23 -37 -41
-82 -103 -13 -19 -33 -40 -43 -49 -10 -8 -11 -11 -3 -7 15 7 3 -8 -50 -63 -14
-15 -18 -22 -10 -18 13 8 13 7 0 -11 -8 -10 -17 -21 -20 -24 -3 -3 -11 -17
-19 -32 -8 -15 -18 -25 -22 -22 -4 2 -6 -5 -4 -16 2 -11 1 -19 -3 -16 -4 2
-18 -19 -32 -47 -14 -29 -29 -55 -34 -58 -5 -4 -5 -12 -1 -19 5 -9 4 -11 -3
-6 -7 4 -12 1 -12 -9 0 -9 -3 -14 -7 -12 -5 3 -9 -7 -10 -21 0 -15 -6 -28 -12
-30 -6 -2 -11 -12 -11 -22 0 -10 -8 -26 -17 -36 -10 -9 -18 -28 -19 -40 0 -13
-9 -34 -20 -46 -10 -12 -13 -18 -6 -14 17 10 15 -9 -3 -24 -8 -7 -12 -16 -9
-21 3 -5 0 -9 -7 -9 -8 0 -8 -4 1 -15 10 -12 9 -16 -3 -21 -9 -3 -13 -12 -10
-20 3 -8 0 -14 -5 -14 -6 0 -9 -9 -7 -20 2 -11 0 -22 -6 -25 -5 -4 -9 -15 -9
-26 0 -10 -6 -19 -12 -19 -10 0 -10 -2 0 -9 11 -6 10 -10 -3 -15 -14 -5 -15
-9 -5 -21 10 -12 10 -15 0 -15 -8 0 -10 -3 -7 -7 4 -3 1 -13 -6 -21 -10 -13
-9 -14 3 -7 13 8 13 7 1 -8 -7 -9 -10 -17 -5 -17 5 0 1 -5 -9 -11 -9 -6 -15
-15 -11 -20 11 -18 12 -59 1 -66 -6 -4 -7 -1 -2 8 8 12 6 12 -8 0 -18 -15 -23
-26 -7 -16 11 7 14 -7 10 -40 -5 -40 -6 -44 -23 -63 -14 -15 -14 -19 -2 -19 8
0 11 5 8 10 -3 6 -1 7 5 3 13 -8 5 -36 -10 -36 -6 0 -4 -8 3 -17 10 -11 10
-14 2 -9 -7 4 -13 3 -13 -3 0 -5 4 -12 10 -16 5 -3 7 -12 4 -20 -4 -8 -11 -12
-18 -8 -8 5 -8 3 -1 -8 12 -17 13 -39 1 -58 -5 -8 -4 -16 3 -20 6 -4 9 -15 5
-24 -3 -9 -10 -14 -15 -11 -5 3 -6 -2 -3 -10 3 -9 11 -13 18 -9 6 4 5 -1 -3
-10 -11 -14 -11 -17 0 -17 8 0 6 -5 -6 -13 -14 -11 -15 -16 -5 -22 9 -6 11 -4
5 5 -5 9 -4 11 4 6 8 -6 9 -12 2 -20 -6 -7 -8 -16 -4 -19 3 -4 0 -7 -8 -7 -10
-1 -10 -3 3 -10 9 -6 15 -18 13 -28 -2 -9 -4 -22 -4 -29 -1 -7 -9 -10 -18 -7
-14 4 -13 2 2 -7 29 -18 29 -17 15 -34 -8 -10 -9 -15 -1 -15 6 0 11 -5 11 -11
0 -5 -6 -7 -13 -3 -9 6 -9 5 0 -7 10 -12 10 -18 0 -29 -10 -10 -9 -12 3 -8 11
4 15 -3 15 -28 0 -19 -4 -34 -9 -34 -6 0 -1 -7 10 -16 10 -8 13 -13 7 -9 -15
7 -17 -4 -3 -25 5 -9 5 -19 -2 -27 -6 -7 -6 -13 -2 -13 5 0 15 -9 22 -21 8
-12 9 -18 4 -15 -5 3 -12 -3 -15 -14 -3 -11 -2 -18 3 -15 4 3 10 -2 14 -10 3
-8 1 -17 -4 -20 -6 -4 -10 -11 -10 -16 0 -6 4 -8 9 -5 5 3 12 -1 15 -10 3 -8
2 -13 -3 -10 -12 8 -8 -27 4 -36 6 -4 11 -15 11 -25 3 -30 8 -48 19 -56 6 -5
-1 -6 -15 -3 -24 5 -24 4 -6 -9 10 -8 22 -13 25 -10 4 2 7 -5 7 -15 0 -10 -5
-16 -11 -13 -5 4 -2 -3 8 -14 10 -11 19 -29 21 -39 3 -11 8 -28 12 -38 5 -12
4 -17 -3 -13 -5 3 -10 0 -10 -8 0 -8 3 -13 6 -11 3 2 12 -2 19 -10 9 -10 10
-14 1 -14 -7 0 -3 -8 9 -18 15 -13 18 -22 11 -29 -8 -8 -5 -17 10 -32 15 -15
17 -21 7 -21 -20 0 -29 -17 -15 -26 8 -4 9 -3 5 4 -5 8 -1 11 11 9 18 -3 31
-22 14 -22 -5 0 -13 -4 -18 -9 -4 -5 -3 -7 2 -3 16 9 38 -9 42 -33 2 -15 -1
-19 -9 -14 -9 5 -9 2 1 -9 15 -19 26 -23 15 -5 -4 7 -3 8 4 4 6 -4 8 -14 5
-23 -4 -10 -2 -14 4 -10 6 4 13 0 16 -8 4 -10 1 -12 -11 -9 -9 3 -5 -2 10 -10
19 -11 26 -22 23 -37 -3 -15 0 -19 10 -15 9 3 12 0 8 -10 -3 -7 0 -14 7 -14 6
0 9 -4 5 -9 -3 -5 2 -17 11 -25 9 -9 14 -23 11 -30 -3 -8 1 -22 9 -33 14 -17
14 -17 5 4 -8 16 -8 24 1 29 6 4 8 3 4 -4 -3 -6 0 -16 7 -24 15 -15 11 -42 -5
-32 -7 4 -8 2 -4 -5 6 -8 12 -9 20 -2 9 7 16 7 23 0 13 -13 6 -42 -7 -34 -5 3
-7 -3 -6 -12 3 -20 21 -28 31 -14 4 7 -1 8 -12 4 -15 -5 -16 -4 -5 8 11 12 16
10 32 -11 11 -14 17 -31 15 -39 -4 -9 0 -11 11 -7 15 6 15 4 3 -11 -12 -15
-12 -16 3 -11 25 10 30 -3 11 -26 -17 -20 -17 -20 0 -7 9 8 21 11 24 7 4 -4 1
-11 -7 -16 -8 -6 -10 -10 -4 -10 5 0 16 6 23 13 8 7 11 7 8 1 -4 -7 0 -17 9
-24 8 -7 13 -19 10 -27 -3 -7 1 -13 9 -13 18 0 47 -29 40 -41 -4 -5 1 -9 9 -9
10 0 13 -6 9 -16 -4 -11 -1 -15 13 -12 13 2 20 -4 22 -19 3 -18 0 -22 -15 -16
-19 7 -18 5 11 -17 11 -8 17 -10 14 -5 -4 6 -3 17 3 25 7 12 9 10 9 -7 0 -15
6 -23 18 -23 15 0 15 -2 2 -11 -12 -8 -11 -9 7 -7 12 2 21 0 20 -3 -3 -7 34
-44 44 -44 11 0 24 -15 24 -28 1 -7 6 -11 13 -10 14 3 44 -40 40 -57 -2 -7 3
-15 10 -17 6 -3 12 0 12 7 0 6 -5 8 -10 5 -17 -10 -11 2 8 16 9 7 14 10 10 5
-4 -4 5 -18 19 -30 20 -17 23 -25 13 -31 -9 -6 -11 -4 -5 5 5 9 4 11 -4 6 -8
-6 -9 -12 -2 -20 6 -7 8 -16 4 -19 -3 -4 -1 -7 6 -7 7 0 11 6 8 14 -3 8 1 17
9 20 17 6 18 -7 3 -37 l-10 -22 18 22 c16 19 20 20 37 8 10 -8 15 -19 11 -25
-5 -9 0 -10 16 -6 13 3 18 3 11 0 -17 -8 24 -45 43 -38 7 3 16 0 20 -5 3 -6
11 -9 16 -6 5 3 6 -2 2 -11 -5 -13 -3 -15 7 -9 9 6 11 4 5 -5 -6 -10 -4 -12 8
-7 10 3 17 2 17 -3 0 -6 3 -9 8 -8 13 5 52 -28 44 -37 -4 -4 1 -5 10 -2 11 4
26 -2 42 -18 18 -18 26 -21 36 -12 10 10 12 8 6 -6 -3 -10 -6 -21 -6 -23 0 -3
-4 -3 -9 1 -5 3 -13 0 -17 -6 -4 -8 -3 -9 4 -5 7 4 12 2 12 -3 0 -6 9 -2 20 9
23 23 44 17 35 -10 -3 -10 0 -22 6 -26 8 -4 9 -3 5 4 -10 17 3 35 17 23 7 -5
16 -10 22 -10 5 0 11 -12 12 -27 3 -34 9 -40 16 -14 3 11 1 18 -4 14 -5 -3 -6
2 -2 11 5 13 7 14 14 3 5 -7 14 -13 21 -13 7 -1 12 -6 11 -13 -2 -6 4 -9 12
-6 8 4 15 1 15 -4 0 -6 -8 -12 -17 -14 -15 -3 -14 -5 5 -10 14 -4 20 -2 15 5
-4 6 0 8 10 4 9 -3 18 -1 21 6 3 8 5 7 5 -2 1 -8 -5 -19 -12 -25 -7 -6 -10
-10 -8 -9 2 2 10 -2 18 -9 11 -9 12 -7 7 7 -5 12 -4 16 4 11 6 -3 13 -2 17 4
4 7 12 7 24 0 10 -5 21 -6 25 -3 3 3 6 1 6 -6 0 -7 5 -9 12 -5 7 4 8 3 4 -4
-5 -9 -15 -8 -38 4 -16 9 -27 11 -24 6 3 -6 3 -12 -1 -15 -5 -2 -2 -2 5 -1 16
4 63 -17 57 -25 -2 -4 5 -7 16 -7 18 0 19 2 4 12 -10 8 -12 14 -6 19 6 3 11 1
11 -4 0 -6 10 -9 23 -7 23 3 57 -13 57 -27 0 -4 -4 -5 -10 -2 -5 3 -10 1 -10
-4 0 -6 5 -11 11 -11 5 0 7 -6 3 -12 -4 -8 -3 -10 2 -5 5 5 10 13 10 18 1 5 2
15 3 22 1 6 8 -1 15 -18 10 -25 13 -26 19 -12 5 12 3 16 -5 11 -6 -4 -8 -3 -5
3 8 13 47 11 48 -2 0 -5 -5 -11 -13 -13 -9 -2 -8 0 2 8 12 9 12 11 1 8 -8 -2
-15 -11 -17 -20 -2 -18 18 -15 45 6 11 8 13 8 8 0 -3 -6 4 -16 18 -22 17 -8
23 -17 20 -32 -2 -12 0 -18 6 -14 6 3 8 9 5 12 -3 3 0 12 7 20 10 13 9 14 -2
7 -10 -6 -12 -4 -6 5 5 8 4 11 -2 7 -6 -4 -17 1 -24 11 -13 16 -13 16 5 2 11
-8 21 -14 23 -12 1 1 4 2 6 1 1 -1 19 -2 39 -3 30 -2 45 -11 77 -47 23 -24 38
-36 35 -26 -3 9 -9 17 -13 17 -4 0 -8 6 -8 13 0 8 15 12 44 12 23 0 43 -3 43
-6 0 -4 14 -5 30 -4 33 3 37 -3 18 -25 -11 -12 -10 -12 3 -2 9 7 23 11 30 10
8 -2 13 2 12 9 -2 7 6 10 20 7 12 -3 27 -6 34 -6 7 -1 10 -5 7 -10 -3 -4 2 -8
11 -8 9 0 13 5 9 11 -5 8 -1 8 14 0 15 -8 22 -8 25 2 4 9 6 9 6 -1 1 -7 6 -10
11 -7 6 3 10 1 10 -4 0 -6 5 -11 11 -11 6 0 8 7 4 18 -5 13 -3 14 6 5 6 -6 18
-9 25 -6 8 3 14 0 14 -7 0 -6 -4 -9 -9 -5 -17 10 -20 -10 -4 -30 12 -16 14
-16 10 -3 -8 24 9 32 22 11 9 -16 10 -16 8 4 0 12 -4 20 -7 18 -4 -2 -7 2 -7
10 0 9 5 11 11 7 6 -4 29 -7 51 -6 40 1 64 -14 42 -28 -10 -6 13 -6 56 1 11 2
8 31 -3 31 -5 0 -9 -5 -7 -11 1 -6 -4 -14 -12 -16 -10 -4 -11 -1 -3 13 13 23
73 29 65 6 -5 -11 -7 -11 -14 0 -5 7 -9 8 -9 2 0 -28 40 -24 41 5 0 11 3 8 10
-7 7 -19 29 -23 29 -6 0 3 -4 2 -10 -1 -5 -3 -10 0 -10 8 0 9 9 13 25 12 14
-2 25 0 25 4 0 5 12 7 28 6 15 -1 34 2 43 6 9 5 26 2 41 -5 34 -18 75 -14 96
9 12 13 12 16 1 7 -12 -9 -16 -9 -16 1 0 7 12 14 26 15 14 1 38 3 54 4 15 1
27 7 28 12 0 6 4 1 9 -12 9 -22 10 -22 37 -5 26 18 27 17 20 -2 -7 -20 -7 -20
8 -1 8 11 16 29 16 40 1 18 2 19 6 3 5 -18 5 -18 19 0 14 17 15 16 9 -7 -4
-17 -3 -21 3 -12 11 17 22 17 32 2 5 -9 9 -9 14 -1 6 9 -5 15 -25 13 -3 -1 -6
6 -6 14 0 9 6 13 15 9 8 -3 21 3 29 12 13 17 13 16 4 -4 -8 -16 -7 -22 4 -26
8 -4 12 -1 9 6 -2 7 6 23 20 36 22 20 24 21 22 5 -2 -11 -8 -19 -14 -19 -6 0
-13 -3 -17 -7 -9 -9 16 -5 33 5 6 5 16 6 21 2 5 -3 12 -1 16 5 4 6 10 8 15 5
4 -3 6 3 3 14 -7 28 24 34 42 8 8 -12 15 -16 15 -10 0 7 -4 15 -10 18 -5 3
-10 11 -10 16 0 6 15 0 33 -12 26 -19 29 -20 17 -4 -14 17 -13 18 2 12 12 -4
15 -2 11 9 -4 11 -9 12 -18 4 -10 -8 -15 -8 -21 1 -4 8 -3 9 4 5 7 -4 12 -2
12 4 0 6 8 10 18 8 9 -2 16 2 15 8 -1 7 8 9 22 6 16 -3 22 -9 19 -21 -5 -13
-3 -13 6 2 6 9 16 14 22 11 7 -4 8 -2 4 5 -4 6 -11 9 -16 6 -5 -3 -11 -1 -15
4 -3 6 4 8 16 6 15 -3 19 0 15 10 -3 9 0 12 10 8 9 -3 13 -13 9 -27 -5 -19 -5
-19 5 -3 7 10 9 25 6 33 -3 8 -2 13 3 9 5 -3 17 2 25 11 9 8 16 11 16 5 0 -5
-5 -13 -10 -16 -13 -8 -13 -25 1 -25 5 0 7 5 3 12 -5 7 -2 9 8 6 11 -5 14 0
12 18 -1 13 3 22 9 21 7 -1 11 4 9 11 -1 8 2 11 9 6 6 -3 15 0 20 7 7 11 9 11
9 1 0 -7 -7 -15 -15 -18 -8 -4 -12 -10 -9 -15 3 -5 -3 -9 -13 -10 -13 0 -14
-2 -4 -6 8 -3 20 2 28 13 14 20 59 32 47 12 -4 -7 -3 -8 5 -4 9 6 9 11 0 22
-10 12 -14 12 -20 2 -6 -8 -9 -9 -9 -2 0 6 8 18 17 25 14 12 16 12 9 0 -6 -9
-5 -12 5 -9 8 3 13 10 12 16 -2 8 5 9 22 2 19 -7 23 -6 18 5 -3 8 -10 12 -16
8 -6 -3 -7 -1 -3 6 6 9 11 9 24 -1 10 -8 13 -9 9 -1 -4 7 1 14 13 18 11 3 19
11 17 18 -1 6 5 12 13 12 8 0 14 7 12 14 -1 7 2 10 7 7 5 -3 14 1 21 9 12 14
44 9 34 -6 -3 -5 2 -6 11 -3 14 6 14 8 1 18 -13 10 -13 13 2 26 14 13 15 13
10 -1 -5 -12 -1 -16 15 -14 12 1 23 4 25 5 1 1 6 3 11 4 5 0 12 4 16 8 4 3 0
5 -9 4 -8 -1 -19 -5 -22 -9 -20 -20 -28 3 -10 31 6 10 11 10 21 2 10 -8 15 -8
21 1 4 8 3 9 -4 5 -7 -4 -12 -2 -12 3 0 6 7 11 15 11 8 0 15 -4 15 -10 0 -5 6
-10 13 -10 6 1 2 9 -10 19 -19 16 -20 20 -7 25 8 3 13 2 10 -3 -3 -5 1 -11 9
-14 10 -4 12 -1 8 10 -4 11 -2 14 5 9 7 -4 12 -1 12 9 0 10 -5 13 -12 9 -8 -4
-10 -3 -5 2 5 5 14 9 20 9 7 0 12 6 12 13 0 6 3 12 8 12 4 0 12 0 18 0 5 0 7
-5 4 -10 -3 -6 -1 -10 4 -10 15 0 14 13 -1 29 -11 10 -10 12 2 11 33 -5 42 0
37 19 -6 23 15 34 33 18 10 -10 10 -7 0 12 -6 13 -8 21 -2 17 5 -3 15 8 22 24
7 17 15 29 17 26 3 -2 0 -14 -6 -25 -10 -17 -9 -20 4 -15 13 6 20 24 16 47 -1
5 3 6 9 2 5 -3 10 -2 10 3 0 4 10 19 23 32 12 14 21 28 19 33 -1 5 2 6 8 2 5
-3 10 -1 10 4 0 13 27 15 32 2 2 -4 12 1 23 11 19 18 19 19 1 12 -15 -6 -17
-4 -11 7 6 11 5 12 -6 1 -24 -22 -30 -13 -7 12 22 23 45 26 32 4 -4 -6 -2 -8
3 -5 6 4 8 19 5 33 -4 21 -2 26 10 22 8 -4 21 -2 29 3 10 6 10 9 2 9 -7 0 -13
5 -13 11 0 5 4 7 10 4 5 -3 9 2 7 12 -1 10 3 18 8 18 6 0 10 -10 9 -22 -1 -12
2 -20 7 -18 4 3 6 19 4 37 -5 39 2 51 24 39 13 -7 18 -6 18 4 0 7 -6 11 -14 8
-17 -7 -17 5 2 24 8 8 12 19 9 25 -4 7 -2 8 4 4 6 -4 9 -13 6 -20 -3 -8 -1
-17 4 -20 5 -3 8 8 6 25 -2 16 0 27 5 24 5 -3 13 0 17 6 4 7 3 9 -4 5 -6 -4
-10 1 -9 13 1 16 4 18 16 8 12 -10 13 -9 2 11 -9 18 -9 22 1 20 7 -2 12 3 10
10 -1 8 2 11 8 7 6 -4 8 -15 5 -26 -4 -10 -2 -19 3 -19 11 0 10 40 -1 57 -4 6
1 17 10 24 14 12 16 12 8 0 -6 -10 -4 -12 4 -7 7 5 10 15 7 23 -4 10 -2 13 8
10 10 -4 13 -1 9 8 -3 8 -10 12 -16 8 -6 -3 -7 -1 -3 6 6 9 11 9 22 0 12 -10
13 -9 7 7 -6 17 -5 18 13 4 18 -14 18 -13 -1 9 l-20 24 25 -7 c15 -5 20 -4 12
1 -13 10 -13 65 0 57 4 -3 8 1 8 8 0 9 3 9 10 -2 5 -8 10 -10 10 -5 0 6 -6 17
-12 24 -10 11 -10 13 0 7 12 -7 15 0 15 36 0 10 4 15 10 11 6 -4 8 0 4 11 -4
11 -3 15 4 11 6 -4 9 1 7 11 -2 13 3 19 15 18 18 -2 18 -1 0 19 -10 12 -12 17
-4 12 11 -6 13 -4 7 10 -5 15 -4 16 8 6 11 -9 16 -9 22 0 4 7 3 9 -3 6 -6 -4
-14 0 -17 9 -3 8 -2 12 3 9 5 -3 12 -1 16 5 3 5 1 10 -5 10 -6 0 -8 5 -5 10 4
6 12 7 18 3 7 -4 6 0 -2 10 -16 20 -2 23 19 5 12 -11 12 -10 2 3 -6 9 -9 19
-5 22 3 4 1 7 -5 7 -7 0 -12 5 -12 11 0 6 6 9 13 6 10 -4 13 2 9 20 -3 18 -1
24 7 19 6 -4 11 -2 11 3 0 6 -5 11 -11 11 -8 0 -9 4 0 13 6 8 8 17 4 21 -4 4
1 4 11 0 15 -6 17 -4 10 7 -12 20 -14 40 -3 33 5 -3 9 7 9 21 0 15 4 24 10 20
6 -3 10 -1 10 4 0 6 -6 11 -12 11 -10 0 -9 3 1 9 11 7 11 9 0 14 -12 4 -12 7
0 18 9 9 11 9 7 2 -10 -19 -1 -16 15 4 10 11 10 14 2 9 -8 -4 -13 -1 -13 8 0
15 12 21 33 17 5 -1 6 3 2 8 -3 6 -12 8 -20 5 -13 -6 -14 7 -2 36 4 8 9 44 12
80 3 36 7 73 8 83 1 9 8 17 17 18 10 0 9 3 -5 9 -11 5 -15 9 -10 9 6 1 10 33
10 76 0 41 4 75 9 75 5 0 3 6 -3 14 -9 11 -9 16 0 21 8 6 7 10 -2 16 -8 5 -9
9 -4 9 12 0 13 46 2 57 -4 3 -2 12 4 20 9 10 8 13 -2 13 -11 0 -11 2 1 9 8 6
19 7 25 4 5 -4 6 -2 2 3 -5 5 -13 10 -18 10 -22 3 -23 5 -9 14 12 8 12 10 1
10 -9 0 -8 5 6 18 10 9 14 14 9 10 -18 -14 -29 -8 -16 7 7 8 8 15 3 15 -5 0
-9 9 -10 20 -1 13 2 18 10 13 7 -3 3 4 -8 17 -17 20 -18 23 -3 17 14 -5 16 -3
9 11 -23 41 -31 84 -20 104 9 16 8 19 -1 13 -9 -6 -11 0 -8 24 2 17 1 31 -4
31 -4 0 -8 5 -8 11 0 5 6 7 13 3 6 -4 9 -4 5 1 -4 4 -2 15 5 24 10 14 10 14
-4 3 -15 -11 -18 -9 -27 18 -9 26 -9 30 6 31 14 0 13 2 -3 9 -11 5 -16 9 -11
9 5 1 2 9 -5 18 -12 15 -12 16 1 8 12 -6 13 -5 3 6 -7 7 -13 17 -13 22 0 4 6
5 13 2 6 -4 3 1 -7 9 -11 9 -16 16 -12 16 5 0 4 6 -3 13 -7 9 -7 17 0 24 7 7
6 15 -4 24 -7 8 -12 20 -9 27 2 6 -3 15 -12 18 -8 3 -12 12 -10 19 3 7 0 24
-7 37 -7 13 -12 27 -11 32 2 5 -3 13 -10 17 -10 7 -10 9 1 9 11 0 10 4 -5 16
-10 8 -12 12 -4 8 10 -5 9 -1 -4 14 -10 11 -19 32 -20 46 0 14 -6 26 -13 26
-7 0 -10 7 -7 15 4 8 1 15 -5 15 -6 0 -11 5 -11 11 0 5 6 7 13 4 6 -4 4 0 -5
8 -10 8 -18 22 -18 31 0 10 -4 14 -10 11 -6 -3 -7 1 -4 9 4 9 1 16 -6 16 -10
0 -10 3 0 15 11 13 10 14 -5 8 -14 -5 -17 -3 -12 10 4 10 2 17 -4 17 -6 0 -8
7 -5 16 3 8 2 13 -3 10 -8 -5 -21 15 -20 30 0 4 -3 10 -8 13 -13 9 -48 65 -46
73 2 3 -4 12 -12 18 -8 7 -15 18 -15 25 0 6 -9 20 -21 31 -11 10 -18 26 -16
35 3 12 0 16 -9 12 -9 -3 -14 1 -14 12 0 9 -4 13 -10 10 -6 -3 -10 1 -10 10 0
9 -7 23 -15 32 -8 8 -13 19 -10 24 4 5 -2 6 -12 2 -10 -3 -15 -2 -11 2 5 5 -2
15 -13 23 -17 12 -18 16 -8 23 10 6 7 9 -10 9 -24 0 -24 0 -5 22 15 18 15 20
2 9 -15 -11 -20 -10 -33 3 -9 9 -13 16 -8 16 4 0 -3 7 -15 16 -12 8 -20 20
-17 25 4 5 1 9 -5 9 -6 0 -8 6 -4 13 5 9 4 9 -6 0 -15 -14 -40 4 -33 24 2 6
-5 14 -16 18 -19 6 -25 17 -22 38 0 4 -5 6 -11 5 -7 -2 -12 3 -10 10 1 8 -2
11 -7 8 -11 -7 -77 53 -73 66 1 5 -2 7 -8 3 -5 -3 -10 -1 -10 5 0 6 -4 8 -10
5 -5 -3 -10 1 -10 9 0 10 -9 16 -22 16 -12 0 -19 3 -15 6 9 9 -19 34 -37 34
-8 0 -18 9 -21 20 -3 11 -13 20 -21 20 -8 0 -14 5 -14 10 0 6 -6 10 -13 10 -7
0 -28 13 -47 30 -18 16 -38 27 -43 23 -6 -4 -8 0 -5 8 4 10 -1 15 -15 16 -11
1 -23 6 -26 10 -3 4 -18 14 -33 22 -15 8 -25 18 -22 22 3 5 -2 6 -10 3 -9 -4
-18 1 -22 10 -3 9 -10 14 -14 11 -5 -3 -11 -1 -15 5 -4 6 -11 8 -16 5 -5 -4
-9 -2 -9 4 0 5 -16 15 -34 22 -20 7 -32 17 -29 23 4 6 -2 4 -12 -4 -11 -9 -16
-10 -11 -2 5 8 1 12 -12 12 -11 0 -23 7 -26 16 -3 8 -10 12 -16 9 -5 -3 -10
-2 -10 4 0 6 -7 8 -15 5 -8 -4 -15 -1 -15 6 0 6 -4 8 -10 5 -5 -3 -10 -1 -10
4 0 6 -3 10 -7 10 -20 -3 -34 2 -28 11 3 5 0 7 -8 4 -21 -8 -69 14 -61 28 5
10 4 10 -6 1 -10 -9 -18 -8 -38 5 -17 11 -23 12 -18 4 7 -11 4 -11 -13 0 -12
7 -21 17 -21 23 0 5 -5 3 -10 -5 -5 -8 -10 -10 -10 -5 0 6 -12 12 -27 13 -15
1 -37 9 -50 17 -13 9 -23 11 -23 6 0 -5 -9 -7 -20 -4 -11 3 -18 8 -16 12 2 3
-12 7 -31 8 -20 1 -43 5 -52 9 -14 6 -55 13 -103 17 -10 1 -18 5 -18 10 0 5
-6 7 -12 4 -7 -2 -21 0 -30 5 -12 5 -18 5 -18 -1 0 -7 -9 -7 -25 -1 -14 5 -25
6 -25 2 0 -4 -5 0 -10 8 -7 11 -10 11 -10 2 0 -9 -5 -10 -19 -2 -14 7 -21 6
-24 -3 -4 -9 -6 -9 -6 1 -1 6 -6 12 -12 12 -5 0 -7 -4 -4 -10 3 -6 -1 -7 -9
-4 -9 3 -13 11 -9 18 5 8 3 8 -8 0 -15 -11 -80 -11 -98 1 -6 3 -11 0 -11 -7 0
-9 -3 -9 -10 2 -7 11 -10 11 -10 2 0 -9 -5 -10 -17 -4 -10 5 -34 6 -53 3z
m1680 -4145 c0 -3 -4 -8 -10 -11 -5 -3 -10 -1 -10 4 0 6 5 11 10 11 6 0 10 -2
10 -4z m-797 -502 c-4 -10 -9 -12 -15 -6 -12 12 -1 35 12 27 5 -3 6 -13 3 -21z
m-243 -69 c0 6 9 11 20 12 11 1 20 -3 20 -9 0 -6 -3 -8 -7 -5 -3 4 -17 0 -30
-8 -22 -15 -23 -14 -23 7 0 19 2 20 10 8 5 -8 10 -10 10 -5z m-1037 -35 c3
-11 1 -18 -4 -14 -5 3 -9 12 -9 20 0 20 7 17 13 -6z m880 -3 c3 -8 -5 -13 -24
-13 -16 -1 -29 3 -29 8 0 5 4 7 9 3 5 -3 12 -1 16 5 9 14 22 13 28 -3z"/>
<path d="M665 4040 c-3 -6 1 -7 9 -4 18 7 21 14 7 14 -6 0 -13 -4 -16 -10z"/>
<path d="M4940 2881 c0 -6 4 -13 10 -16 6 -3 7 1 4 9 -7 18 -14 21 -14 7z"/>
<path d="M4980 2360 c-9 -6 -10 -10 -3 -10 6 0 15 5 18 10 8 12 4 12 -15 0z"/>
<path d="M4936 2018 c3 -5 10 -6 15 -3 13 9 11 12 -6 12 -8 0 -12 -4 -9 -9z"/>
<path d="M230 1879 c0 -5 5 -7 10 -4 6 3 10 8 10 11 0 2 -4 4 -10 4 -5 0 -10
-5 -10 -11z"/>
<path d="M265 1820 c-3 -6 1 -7 9 -4 18 7 21 14 7 14 -6 0 -13 -4 -16 -10z"/>
<path d="M313 1695 c0 -8 4 -12 9 -9 5 3 6 10 3 15 -9 13 -12 11 -12 -6z"/>
<path d="M366 1558 c3 -5 10 -6 15 -3 13 9 11 12 -6 12 -8 0 -12 -4 -9 -9z"/>
<path d="M4725 1489 c-4 -6 -5 -12 -2 -15 2 -3 7 2 10 11 7 17 1 20 -8 4z"/>
<path d="M410 1440 c0 -4 7 -7 15 -6 23 3 26 12 5 13 -11 1 -20 -2 -20 -7z"/>
<path d="M453 1385 c0 -8 4 -15 9 -15 4 0 8 4 8 9 0 6 -4 12 -8 15 -5 3 -9 -1
-9 -9z"/>
<path d="M590 1180 c0 -5 5 -10 11 -10 5 0 7 5 4 10 -3 6 -8 10 -11 10 -2 0
-4 -4 -4 -10z"/>
<path d="M660 1066 c0 -2 9 -6 20 -9 11 -3 18 -1 14 4 -5 9 -34 13 -34 5z"/>
<path d="M4460 1066 c0 -2 8 -10 18 -17 15 -13 16 -12 3 4 -13 16 -21 21 -21
13z"/>
<path d="M670 1041 c0 -6 4 -13 10 -16 6 -3 7 1 4 9 -7 18 -14 21 -14 7z"/>
<path d="M714 1009 c-4 -7 -3 -9 4 -5 5 3 12 0 15 -6 2 -7 7 -10 11 -7 4 3 0
12 -8 18 -11 9 -16 9 -22 0z"/>
<path d="M4390 981 c0 -6 4 -13 10 -16 6 -3 7 1 4 9 -7 18 -14 21 -14 7z"/>
<path d="M735 960 c3 -5 8 -10 11 -10 2 0 4 5 4 10 0 6 -5 10 -11 10 -5 0 -7
-4 -4 -10z"/>
<path d="M4352 947 c-12 -13 -22 -28 -22 -34 0 -6 -6 -13 -12 -16 -7 -3 -3 -4
8 -4 14 1 20 6 17 15 -6 15 31 54 43 44 4 -4 4 -1 0 6 -9 16 -9 16 -34 -11z"/>
<path d="M816 867 c3 -10 9 -15 12 -12 3 3 0 11 -7 18 -10 9 -11 8 -5 -6z"/>
<path d="M864 855 c-3 -8 -4 -20 -2 -27 3 -7 7 -1 10 15 6 29 1 36 -8 12z"/>
<path d="M4270 840 c0 -5 7 -7 15 -4 8 4 15 8 15 10 0 2 -7 4 -15 4 -8 0 -15
-4 -15 -10z"/>
<path d="M890 813 c10 -15 18 -19 26 -13 6 6 15 6 19 2 5 -4 5 -1 1 6 -4 7
-12 10 -17 6 -5 -3 -17 0 -26 8 -15 12 -15 11 -3 -9z"/>
<path d="M4250 806 c0 -2 7 -7 16 -10 8 -3 12 -2 9 4 -6 10 -25 14 -25 6z"/>
<path d="M915 780 c-4 -6 -1 -9 5 -8 7 2 14 -5 15 -15 2 -11 7 -22 11 -25 4
-4 5 1 1 10 -3 10 0 19 9 22 12 5 14 1 10 -17 -3 -12 -3 -16 0 -9 3 6 10 9 16
6 6 -4 5 3 -2 15 -6 12 -15 19 -21 15 -5 -3 -16 -1 -24 6 -9 8 -15 8 -20 0z"/>
<path d="M4146 742 c-3 -5 1 -9 9 -9 8 0 12 4 9 9 -3 4 -7 8 -9 8 -2 0 -6 -4
-9 -8z"/>
<path d="M1108 638 c4 -16 2 -19 -8 -13 -9 5 -11 4 -6 -4 4 -6 12 -9 17 -6 12
8 12 32 0 39 -5 4 -7 -4 -3 -16z"/>
<path d="M3955 600 c-3 -5 -1 -10 4 -10 6 0 11 5 11 10 0 6 -2 10 -4 10 -3 0
-8 -4 -11 -10z"/>
<path d="M4026 602 c-3 -5 1 -9 9 -9 8 0 12 4 9 9 -3 4 -7 8 -9 8 -2 0 -6 -4
-9 -8z"/>
<path d="M1204 569 c-4 -7 -3 -9 4 -5 5 3 13 0 15 -6 4 -9 6 -10 6 -1 1 17
-16 25 -25 12z"/>
<path d="M3913 555 c-12 -14 -17 -25 -12 -25 5 0 14 9 21 19 9 15 15 17 25 9
10 -8 12 -7 7 6 -8 22 -15 20 -41 -9z"/>
<path d="M1245 520 c-2 -4 8 -6 23 -5 15 1 34 -3 42 -9 12 -8 13 -8 2 4 -13
15 -60 22 -67 10z"/>
<path d="M1297 485 c3 -8 9 -12 14 -9 12 7 11 11 -5 17 -10 4 -13 1 -9 -8z"/>
<path d="M1359 478 c15 -21 2 -24 -19 -5 -12 10 -12 9 0 -6 7 -10 19 -16 26
-13 7 3 15 0 18 -7 3 -8 5 -8 5 -1 1 6 -9 19 -21 30 -19 15 -20 16 -9 2z"/>
<path d="M1440 425 c-7 -9 -8 -15 -2 -15 5 0 12 7 16 15 3 8 4 15 2 15 -2 0
-9 -7 -16 -15z"/>
<path d="M1487 409 c7 -9 10 -19 6 -22 -3 -4 -2 -7 4 -7 6 0 14 8 17 17 4 10
4 14 0 10 -4 -4 -14 -1 -23 6 -14 10 -14 10 -4 -4z"/>
<path d="M3655 380 c-3 -5 -1 -10 4 -10 6 0 11 5 11 10 0 6 -2 10 -4 10 -3 0
-8 -4 -11 -10z"/>
<path d="M1553 363 c0 -7 4 -13 8 -13 4 0 9 6 12 13 3 8 0 14 -7 14 -7 0 -13
-6 -13 -14z"/>
<path d="M3544 358 c-5 -7 -3 -8 6 -3 10 6 12 4 7 -9 -4 -10 -3 -15 3 -11 13
8 13 35 1 35 -6 0 -13 -5 -17 -12z"/>
<path d="M3445 321 c-6 -11 13 -26 22 -17 4 3 1 6 -6 6 -7 0 -9 5 -6 10 3 6 4
10 1 10 -3 0 -7 -4 -11 -9z"/>
<path d="M1700 286 c0 -2 8 -10 18 -17 15 -13 16 -12 3 4 -13 16 -21 21 -21
13z"/>
<path d="M1790 279 c0 -5 5 -9 10 -9 6 0 12 0 15 0 14 0 8 13 -7 16 -10 1 -18
-2 -18 -7z"/>
<path d="M1790 256 c0 -2 8 -10 18 -17 15 -13 16 -12 3 4 -13 16 -21 21 -21
13z"/>
<path d="M1929 203 c-13 -16 -12 -17 4 -4 16 13 21 21 13 21 -2 0 -10 -8 -17
-17z"/>
<path d="M2032 203 c-9 -8 -11 -11 -4 -8 7 4 23 -1 34 -12 12 -10 18 -12 14
-5 -4 7 -1 12 8 12 9 0 16 4 16 10 0 5 -7 6 -17 3 -10 -4 -14 -2 -10 4 9 15
-21 12 -41 -4z"/>
<path d="M3103 213 c-7 -2 -13 -12 -13 -21 1 -15 2 -15 11 1 6 9 15 14 21 11
7 -4 8 -2 4 4 -4 7 -8 12 -9 11 -1 0 -8 -3 -14 -6z"/>
<path d="M2199 187 c-6 -10 -4 -45 2 -41 4 2 6 12 3 22 -5 14 -3 14 10 -2 13
-16 16 -17 16 -4 0 13 -26 34 -31 25z"/>
<path d="M2900 175 c-14 -17 -35 -21 -25 -5 3 6 -1 7 -10 4 -11 -5 -13 -10 -6
-17 7 -7 18 -7 35 3 14 7 32 10 40 7 22 -9 20 0 -3 12 -14 8 -22 7 -31 -4z"/>
<path d="M3050 180 c0 -5 5 -10 11 -10 5 0 7 5 4 10 -3 6 -8 10 -11 10 -2 0
-4 -4 -4 -10z"/>
<path d="M3116 178 c3 -5 10 -6 15 -3 13 9 11 12 -6 12 -8 0 -12 -4 -9 -9z"/>
<path d="M2248 158 c6 -23 8 -23 14 0 3 11 0 19 -7 19 -7 0 -10 -8 -7 -19z"/>
<path d="M2336 171 c-3 -5 1 -14 9 -21 9 -7 12 -18 8 -24 -5 -7 -1 -4 8 5 15
17 17 17 33 1 14 -14 17 -14 14 -2 -2 9 4 15 14 15 22 0 33 12 11 12 -10 0
-23 -4 -30 -9 -7 -5 -14 -5 -18 1 -10 17 -43 32 -49 22z m29 -19 c-3 -3 -11 0
-18 7 -9 10 -8 11 6 5 10 -3 15 -9 12 -12z"/>
<path d="M2830 161 c0 -6 4 -13 10 -16 6 -3 7 1 4 9 -7 18 -14 21 -14 7z"/>
<path d="M2294 149 c-3 -6 -3 -13 0 -16 3 -4 6 -1 6 5 0 6 7 9 15 6 8 -4 15
-4 15 -1 0 11 -30 16 -36 6z"/>
<path d="M2575 151 c-3 -2 -5 -9 -5 -15 0 -6 5 -4 10 4 6 9 10 10 10 3 0 -14
38 -13 43 2 4 10 -49 16 -58 6z"/>
<path d="M2454 138 c-4 -6 -3 -8 4 -4 5 3 12 1 14 -6 3 -8 6 -9 11 -1 4 6 0
13 -8 17 -8 3 -17 0 -21 -6z"/>
<path d="M2900 145 c0 -7 30 -13 34 -7 3 4 -4 9 -15 9 -10 1 -19 0 -19 -2z"/>
<path d="M2705 119 c-3 -4 2 -6 10 -5 21 3 28 13 10 13 -9 0 -18 -4 -20 -8z"/>
<path d="M2755 120 c3 -5 8 -10 11 -10 2 0 4 5 4 10 0 6 -5 10 -11 10 -5 0 -7
-4 -4 -10z"/>
</g>
</svg>
